<svg fill="#f00" height="288.110764" viewBox="297.6 173.6 595.3 494.7" width="347.088733" xmlns="http://www.w3.org/2000/svg"><path d="m364.8 476.5v-40.2h-41.9v40.2h-25.3v-100.6h25.3v38.6h41.9v-38.6h25.3v100.6z"/><path d="m403.5 476.5v-100.6h78.4v20.8h-53.3v18.7h45.5v20.2h-45.5v20.1h53.3v20.8z"/><path d="m524.8 476.5v-79.5h-31.3v-21.1h88v21.1h-31.4v79.5z"/><path d="m593.3 476.5v-100.6h76.6v20.8h-51.5v18.7h45.5v20.2h-45.5v20.1h53.3v20.8z"/><path d="m745.6 476.5-18.9-27.3h-18.9v27.3h-25.3v-100.6h43.7c8.8 0 16.6 1.5 23.1 4.5 6.6 3 11.7 7.3 15.3 12.8s5.4 12.1 5.4 19.6-1.8 14.1-5.5 19.5c-3.4 5.1-8.1 9.1-14 11.9l22.5 32.3zm-20.6-48c6.5 0 11.4-1.4 14.7-4.2s4.9-6.5 4.9-11.6-1.6-9-4.8-11.7c-3.3-2.7-8.2-4.1-14.7-4.1h-17.2v31.5h17.1z"/><path d="m881.9 394.8c-4.5-6.1-10.1-11.2-17-14.9-1.6-.9-3.4-1.6-5.1-2.4-3.4-1.5-6.9-2.6-10.6-3.4-22.5-116.1-124.3-200.3-242.6-200.3-111.9 0-210.3 74.9-239.4 182.6h23.8c28.4-94.8 116.4-161.2 215.6-161.2 105.6 0 197.9 75.2 220 178.4-2.9.5-5.7 1.3-8.4 2.2-3.3 1-6.5 2.3-9.6 4-8.3 4.5-15 10.9-19.7 18.9-.9 1.6-1.7 3.2-2.5 4.8-3.4 6.9-5.3 14.5-5.3 22.6 0 25.3 18.4 46.5 43.1 52-26 99-115.2 167.9-217.6 167.9-95.1 0-183.2-60.2-215.1-149.9l-.3-.9-23.9-.2.5 1.7c33.1 102.5 131.2 171.3 238.8 171.3 56.1 0 111.1-19.4 154.8-54.7 42.5-34.3 72.7-82 85.4-134.7 26.1-4.5 45.9-26.3 45.9-52.5 0-11.7-4-22.5-10.8-31.3zm-45.1 61c-16.7 0-30.3-13.6-30.3-30.3s13.6-30.3 30.3-30.3 30.3 13.6 30.3 30.3c0 16.8-13.5 30.3-30.3 30.3z"/><path d="m606.6 668.3c-26.5 0-52.8-4.2-78.1-12.4-24.8-8-48.1-19.8-69.3-34.9-21.3-15.2-39.9-33.4-55.4-54.1-15.9-21.3-28-44.9-36.2-70.1l-.6-2h.3l24.1.2.4 1c31.8 89.6 119.7 149.8 214.8 149.8 25.2 0 49.9-4.1 73.5-12.3 23-8 44.5-19.6 63.8-34.5s36-32.7 49.5-53c13.8-20.7 24.1-43.5 30.5-67.7-12-2.7-22.9-9.3-30.7-18.6-8-9.5-12.4-21.4-12.4-33.5 0-7.9 1.8-15.5 5.3-22.7.8-1.8 1.7-3.4 2.5-4.8 4.7-8 11.4-14.4 19.8-19 2.9-1.6 6.1-2.9 9.6-4 2.8-.9 5.5-1.7 8.2-2.2-22.2-103.1-114.5-177.9-219.7-177.9-24.3 0-48.4 4-71.5 11.8-22.5 7.7-43.6 18.8-62.8 33.2-19.1 14.3-35.8 31.4-49.5 50.9-14.1 19.9-24.7 41.8-31.7 65.1l-.1.2h-24.2l.1-.3c29.2-107.7 127.7-182.9 239.8-182.9 118.2 0 220.3 84.2 242.8 200.2 3.6.8 7.1 1.9 10.5 3.4 2 .8 3.7 1.6 5.1 2.4 6.8 3.7 12.6 8.7 17.1 15 7.1 9.3 10.8 20.2 10.8 31.5 0 25.9-19.3 48.1-46 52.8-12.7 52.6-43 100.5-85.4 134.7-43.8 35.3-98.8 54.7-154.9 54.7zm-239-173 .4 1.4c8.1 25.1 20.3 48.6 36.1 69.9 15.4 20.7 34 38.9 55.3 54 21.2 15.1 44.5 26.8 69.2 34.8 25.3 8.2 51.5 12.3 78 12.3 56 0 111-19.4 154.6-54.6 42.4-34.2 72.7-82 85.3-134.6v-.2h.2c26.5-4.6 45.7-26.6 45.7-52.3 0-11.3-3.7-22.1-10.7-31.2-4.5-6.2-10.2-11.2-17-14.9-1.5-.8-3.1-1.5-5.1-2.4-3.4-1.5-7-2.6-10.6-3.4h-.2v-.2c-22.4-115.9-124.3-200-242.3-200-111.7 0-210 74.9-239.1 182.2h23.3c7-23.3 17.7-45.2 31.7-65.1 13.8-19.5 30.4-36.7 49.6-51 19.2-14.4 40.3-25.6 62.9-33.2 23.1-7.9 47.2-11.9 71.6-11.9 105.4 0 198.1 75.1 220.3 178.5l.1.2h-.2c-2.7.5-5.5 1.2-8.4 2.2-3.4 1.1-6.6 2.4-9.5 3.9-8.3 4.5-14.9 10.8-19.6 18.8-.8 1.4-1.6 3-2.5 4.8-3.5 7.2-5.3 14.7-5.3 22.5 0 12 4.3 23.9 12.2 33.2 7.8 9.2 18.7 15.8 30.7 18.5l.2.1-.1.2c-6.4 24.3-16.7 47.2-30.6 68-13.6 20.3-30.3 38.2-49.6 53.1-19.4 14.9-40.9 26.6-64 34.5-23.7 8.2-48.5 12.3-73.7 12.3-95.3 0-183.4-60.2-215.3-150.1l-.3-.7zm469.2-39.2c-16.8 0-30.5-13.7-30.5-30.5s13.7-30.5 30.5-30.5 30.5 13.7 30.5 30.5-13.6 30.5-30.5 30.5zm0-60.6c-16.6 0-30 13.5-30 30s13.5 30 30 30c16.6 0 30-13.5 30-30s-13.4-30-30-30z"/></svg>